<svg id="visual" viewBox="0 0 900 600" width="900" height="600" xmlns="http://www.w3.org/2000/svg" xmlns:xlink="http://www.w3.org/1999/xlink" version="1.1"><rect x="0" y="0" width="900" height="600" fill="#002233"></rect><path d="M0 507L21.5 488.7C43 470.3 86 433.7 128.8 413.3C171.7 393 214.3 389 257.2 404.8C300 420.7 343 456.3 385.8 456.8C428.7 457.3 471.3 422.7 514.2 413.3C557 404 600 420 642.8 438C685.7 456 728.3 476 771.2 468.2C814 460.3 857 424.7 878.5 406.8L900 389L900 601L878.5 601C857 601 814 601 771.2 601C728.3 601 685.7 601 642.8 601C600 601 557 601 514.2 601C471.3 601 428.7 601 385.8 601C343 601 300 601 257.2 601C214.3 601 171.7 601 128.8 601C86 601 43 601 21.5 601L0 601Z" fill="#0066FF" stroke-linecap="round" stroke-linejoin="miter"></path></svg>